<!DOCTYPE svg PUBLIC "-//W3C//DTD SVG 1.1//EN" "http://www.w3.org/Graphics/SVG/1.1/DTD/svg11.dtd">
<!-- Uploaded to: SVG Repo, www.svgrepo.com, Transformed by: SVG Repo Mixer Tools -->
<svg fill="#000000" height="64px" width="64px" version="1.1" id="Layer_1" xmlns="http://www.w3.org/2000/svg" xmlns:xlink="http://www.w3.org/1999/xlink" viewBox="0 0 512 512" xml:space="preserve">
<g id="SVGRepo_bgCarrier" stroke-width="0"/>
<g id="SVGRepo_tracerCarrier" stroke-linecap="round" stroke-linejoin="round"/>
<g id="SVGRepo_iconCarrier"> <g> <g> <path d="M389.519,41.458v358.591v28.537l-13.123-8.84l-13.122,8.84v-28.537V41.458V26.25H0v373.799h332.857v85.702l43.539-29.33 l43.54,29.33v-85.702H512V26.25H389.519V41.458z M56.364,117.543h106.802v30.417H56.364V117.543z M214.844,308.756H56.364v-30.417 h158.48V308.756z M214.844,255.157H56.364V224.74h158.48V255.157z M214.844,201.559H56.364v-30.417h158.48V201.559z M332.857,308.756h-35.701v-30.417h35.701V308.756z M332.857,255.157h-35.701V224.74h35.701V255.157z M332.857,201.559h-35.701 v-30.417h35.701V201.559z M332.857,147.96h-35.701v-30.417h35.701V147.96z M419.936,117.543h35.7v30.417h-35.7V117.543z M419.936,171.142h35.7v30.417h-35.7V171.142z M419.936,224.74h35.7v30.417h-35.7V224.74z M419.936,278.338h35.7v30.417h-35.7 V278.338z"/> </g> </g> </g>
</svg>